# Blender 4.2.0
# www.blender.org
o Cube
v 1.000000 1.000000 -1.000000
v 1.000000 -1.000000 -1.000000
v 1.000000 1.000000 1.000000
v 1.000000 -1.000000 1.000000
v -1.000000 1.000000 -1.000000
v -1.000000 -1.000000 -1.000000
v -1.000000 1.000000 1.000000
v -1.000000 -1.000000 1.000000
vn -0.0000 1.0000 -0.0000
vn -0.0000 -0.0000 1.0000
vn -1.0000 -0.0000 -0.0000
vn -0.0000 -1.0000 -0.0000
vn 1.0000 -0.0000 -0.0000
vn -0.0000 -0.0000 -1.0000
vt 0.000087 0.000087
vt 0.999913 0.000087
vt 0.999913 0.999913
vt 0.000087 0.999913
vt 0.000087 0.000087
vt 0.000087 0.999913
vt 0.000043 0.000087
vt 1.000000 0.000087
vt 1.000000 1.000043
vt 0.000043 1.000043
vt 0.000087 0.000087
vt 0.999913 0.000087
vt 0.999913 0.999913
vt 0.000087 0.999913
vt 0.012584 0.012584
vt 0.987415 0.012584
vt 0.987415 0.987416
vt 0.012584 0.987416
s 0
f 1/1/1 5/2/1 7/3/1 3/4/1
f 4/5/2 3/2/2 7/3/2 8/6/2
f 8/7/3 7/8/3 5/9/3 6/10/3
f 6/11/4 2/12/4 4/13/4 8/14/4
f 2/5/5 1/2/5 3/3/5 4/6/5
f 6/15/6 5/16/6 1/17/6 2/18/6
